<?xml version="1.0" encoding="UTF-8"?>
<svg id="Layer_2" data-name="Layer 2" xmlns="http://www.w3.org/2000/svg" viewBox="0 0 42.64 35.34">
  <defs>
    <style>
      .cls-1 {
        fill: #fff;
      }
    </style>
  </defs>
  <g id="Layer_1-2" data-name="Layer 1">
    <g>
      <path class="cls-1" d="m14.08,34.84c-4.59,0-9.08-1.32-12.96-3.81-.52-.32-.75-.97-.54-1.56.18-.52.68-.87,1.23-.87.06,0,.12,0,.17.01.55.06,1.12.1,1.74.1,2.26,0,4.51-.53,6.56-1.55-2.54-1.04-4.49-3.11-5.33-5.72-.14-.44-.03-.92.27-1.26.04-.05.08-.09.13-.13-2.06-1.77-3.27-4.32-3.27-6.99v-.1c0-.46.25-.89.64-1.12.17-.1.36-.16.56-.18-.75-1.37-1.15-2.86-1.15-4.36,0-1.64.44-3.25,1.26-4.67.21-.38.6-.63,1.04-.66,0,0,0,0,.01,0,.49,0,.87.18,1.12.5,3.47,4.25,8.4,6.95,13.95,7.64-.01-.1-.02-.2-.02-.3C19.5,4.68,23.67.5,28.81.5c2.19,0,4.35.86,6.11,2.42,1.52-.35,2.91-.9,4.15-1.64.2-.12.43-.19.67-.19.29,0,.58.1.81.28.43.34.6.91.44,1.43-.17.52-.4,1.05-.71,1.58h0c.17-.08.35-.12.55-.12.39,0,.75.17,1,.46.38.45.42,1.1.08,1.59-.96,1.44-2.23,2.79-3.76,3.99h0c0,.16.01.3.01.45,0,5.85-2.26,11.76-6.19,16.22-4.47,5.07-10.82,7.86-17.89,7.86Zm-7.12-3.85c2.29.82,4.67,1.23,7.12,1.23,8.07,0,13.11-3.8,15.92-6.99,3.47-3.93,5.54-9.34,5.54-14.47,0-.32-.01-.64-.02-.96-.03-.45.17-.88.53-1.14.25-.18.49-.37.73-.56-.13.03-.26.05-.4.06-.05.01-.14.02-.24.02-.56,0-1.06-.35-1.24-.88-.22-.63.07-1.32.66-1.61.16-.09.31-.2.46-.31-.37.1-.74.18-1.11.26-.08.02-.18.03-.27.03-.35,0-.7-.15-.95-.4-1.27-1.36-3.05-2.13-4.9-2.13-3.69,0-6.69,3-6.69,6.69,0,.48.06,1,.19,1.54.09.4-.01.83-.27,1.14-.25.3-.62.47-1.01.47-6.09-.31-11.72-2.89-16.01-7.3-.18.59-.26,1.12-.26,1.65,0,2.24,1.11,4.33,2.98,5.58.5.31.72.93.54,1.51-.18.54-.68.91-1.25.91-.72-.02-1.37-.15-1.93-.3.7,2.37,2.58,4.16,4.98,4.64.59.13,1.02.64,1.04,1.24.02.6-.37,1.13-.95,1.3-.56.15-1.13.25-1.72.3,1.23,1.75,3.14,2.8,5.25,2.84.55.02,1.04.38,1.21.9.17.52,0,1.1-.43,1.44-2.16,1.69-4.72,2.83-7.5,3.34Z"/>
      <path d="m28.81,1c2.32,0,4.39.99,5.97,2.46,1.62-.35,3.16-.93,4.54-1.75.13-.08.27-.12.42-.12.18,0,.36.06.5.17.26.21.37.56.27.88-.3.94-.79,1.77-1.37,2.54.44-.15.93-.17,1.35-.36.11-.05.23-.08.34-.08.23,0,.46.1.62.29.24.28.26.68.05.98-1.04,1.56-2.37,2.9-3.86,4.04,0,.23.03.45.03.69,0,5.49-2.08,11.37-6.07,15.89-3.99,4.53-9.94,7.69-17.52,7.69-4.68,0-9.03-1.38-12.69-3.73-.33-.2-.47-.6-.34-.96.11-.33.42-.54.76-.54.04,0,.07,0,.11,0,.59.07,1.18.1,1.8.1,2.86,0,5.51-.8,7.79-2.16-2.87-.79-5.19-2.94-6.09-5.76-.08-.27-.02-.56.17-.78.16-.18.38-.28.61-.28.05,0,.09,0,.14.01,0,0,.01,0,.02,0,.01,0,.03,0,.04,0,0,0,0,0,.01,0-2.28-1.59-3.83-4.19-3.83-7.19v-.1c0-.28.15-.55.4-.69.13-.08.27-.11.41-.11.13,0,.26.03.38.1.2.11.43.16.63.25-1.08-1.47-1.78-3.25-1.78-5.2,0-1.61.43-3.11,1.19-4.42.13-.23.37-.39.64-.41.02,0,.04,0,.06,0,.25,0,.49.11.64.31,3.61,4.43,8.92,7.32,14.93,7.9-.03-.29-.1-.57-.1-.86,0-4.86,3.95-8.81,8.81-8.81m-7.78,11.45s-.03,0-.04,0c-6.42-.32-12.11-3.28-16.17-7.74-.32.81-.56,1.66-.56,2.59,0,2.5,1.27,4.7,3.2,5.99.31.2.45.58.34.94-.11.34-.42.56-.77.56-.02,0-.03,0-.05,0-.91-.03-1.75-.25-2.56-.53.5,2.93,2.67,5.28,5.56,5.86.36.08.63.4.64.77.01.37-.23.7-.59.81-.74.2-1.53.3-2.34.3h-.13c1.2,2.2,3.44,3.76,6.12,3.81.34,0,.64.23.75.56.11.32,0,.68-.26.89-2.55,2-5.71,3.21-9.14,3.48,2.76,1.26,5.82,1.98,9.06,1.98,7.13,0,12.59-2.95,16.3-7.16,3.71-4.21,5.66-9.72,5.66-14.8,0-.33-.01-.66-.03-.99-.02-.28.1-.55.33-.71.83-.6,1.59-1.28,2.28-2.03-.77.21-1.5.54-2.31.63-.06.01-.12.02-.18.02-.34,0-.65-.21-.77-.54-.14-.39.04-.82.41-1,.82-.49,1.52-1.14,2.08-1.9-.98.4-1.99.7-3.05.91-.06.01-.12.02-.18.02-.22,0-.43-.09-.59-.25-1.31-1.4-3.18-2.28-5.26-2.28-3.98,0-7.19,3.21-7.19,7.19,0,.56.08,1.12.2,1.65.06.25,0,.51-.17.7-.16.18-.39.29-.63.29M28.81,0c-5.32,0-9.66,4.25-9.81,9.53-5.19-.78-9.79-3.38-13.06-7.39-.34-.43-.86-.68-1.42-.68-.04,0-.09,0-.13,0-.6.04-1.14.38-1.44.91-.86,1.49-1.32,3.19-1.32,4.91,0,1.39.32,2.77.93,4.06-.03.02-.06.03-.1.05-.54.32-.88.91-.88,1.54v.11c0,2.65,1.13,5.19,3.07,7.04-.27.44-.34.98-.19,1.48.77,2.41,2.44,4.37,4.62,5.57-1.71.7-3.53,1.06-5.37,1.06-.6,0-1.15-.03-1.69-.09-.07,0-.15-.01-.23-.01-.77,0-1.45.49-1.71,1.21-.29.8.03,1.7.76,2.15,3.95,2.53,8.53,3.88,13.22,3.88,7.22,0,13.7-2.85,18.27-8.03,4.02-4.55,6.32-10.59,6.32-16.55,0-.07,0-.14,0-.22,1.48-1.2,2.72-2.52,3.67-3.95.45-.66.4-1.57-.12-2.19-.27-.32-.65-.54-1.06-.61.12-.28.23-.55.32-.83.23-.71-.02-1.5-.6-1.97-.32-.25-.72-.39-1.13-.39-.33,0-.65.09-.93.26-1.12.66-2.38,1.17-3.75,1.52-1.81-1.53-4.01-2.37-6.24-2.37h0Zm-7.78,13.45c.54,0,1.04-.23,1.39-.64.37-.44.51-1.03.38-1.58-.12-.5-.18-.98-.18-1.43,0-3.41,2.77-6.19,6.19-6.19,1.7,0,3.35.72,4.53,1.97.31.32.72.51,1.15.56-.17.4-.2.87-.04,1.31.17.49.54.88,1.01,1.07-.3.36-.46.82-.43,1.3.01.29.02.6.02.92,0,5.01-2.02,10.3-5.41,14.14-2.74,3.11-7.67,6.82-15.55,6.82-1.77,0-3.51-.22-5.21-.66,2.16-.63,4.16-1.64,5.9-3.01.6-.48.83-1.28.59-1.99-.24-.72-.91-1.22-1.67-1.24-1.67-.03-3.19-.74-4.31-1.95.3-.05.6-.12.9-.2.81-.24,1.35-.98,1.32-1.8-.03-.83-.61-1.53-1.42-1.71-1.93-.39-3.5-1.69-4.3-3.46.34.06.69.1,1.06.11h.02s.06,0,.06,0c.79,0,1.48-.5,1.72-1.25.26-.79-.06-1.65-.76-2.09-1.7-1.14-2.73-3.07-2.73-5.14,0-.22.02-.43.05-.66,4.29,4.11,9.78,6.51,15.63,6.81h.03s.07,0,.07,0h0Z"/>
    </g>
  </g>
</svg>