<?xml version="1.0" encoding="UTF-8"?>
<svg id="Layer_2" data-name="Layer 2" xmlns="http://www.w3.org/2000/svg" viewBox="0 0 43.64 36.34">
  <defs>
    <style>
      .cls-1 {
        fill: #fff;
      }
    </style>
  </defs>
  <g id="Layer_2-2" data-name="Layer 2">
    <g id="Layer_1-2" data-name="Layer 1-2">
      <g>
        <path d="m43.08,4.57c-.22-.25-.48-.45-.78-.59.05-.13.09-.25.13-.38.28-.91-.03-1.92-.78-2.51-.73-.57-1.8-.65-2.61-.16-1.02.61-2.16,1.08-3.38,1.41-1.87-1.5-4.11-2.33-6.37-2.33-5.39,0-9.83,4.17-10.28,9.45-4.83-.86-9.13-3.36-12.18-7.1-.44-.57-1.12-.88-1.98-.88h0c-.78.05-1.47.49-1.84,1.16-.91,1.58-1.39,3.37-1.39,5.17,0,1.3.28,2.62.8,3.87-.53.43-.85,1.09-.85,1.79v.1c0,2.66,1.07,5.22,2.97,7.15-.19.49-.22,1.03-.05,1.54.7,2.17,2.09,4.01,3.95,5.29-1.87.61-3.89.79-5.78.59-.11-.02-.23-.03-.36-.03-.98,0-1.85.62-2.17,1.53-.37,1.03.04,2.18.94,2.74,4.05,2.6,8.71,3.97,13.5,3.97.05,0,.1,0,.14-.01,7.3-.04,13.87-2.94,18.5-8.2,4.09-4.64,6.43-10.78,6.44-16.86,1.44-1.18,2.64-2.5,3.57-3.89.59-.85.54-2.01-.14-2.81Zm-8.05,6.69c0,4.89-1.98,10.06-5.29,13.81-2.67,3.03-7.47,6.65-15.17,6.65-1.11,0-2.21-.09-3.29-.27,1.55-.63,3-1.46,4.3-2.48.75-.6,1.06-1.62.76-2.53-.3-.92-1.15-1.55-2.14-1.59-1.21-.02-2.35-.44-3.28-1.18,0,0,.01,0,.02,0,1.02-.3,1.7-1.24,1.67-2.29-.04-1.06-.79-1.95-1.84-2.19-1.44-.29-2.68-1.15-3.49-2.37.08,0,.16,0,.24,0,1,0,1.88-.64,2.21-1.61.32-1.01-.08-2.11-.94-2.64-1.46-.98-2.38-2.56-2.52-4.3,4.25,3.73,9.58,5.91,15.25,6.2.69,0,1.34-.3,1.78-.83.46-.55.64-1.3.48-2.02-.11-.45-.16-.89-.16-1.31,0-3.14,2.55-5.69,5.69-5.69,1.57,0,3.09.66,4.19,1.84.25.25.54.43.87.55-.05.36-.02.73.1,1.09.15.44.43.82.79,1.09-.17.35-.25.75-.22,1.16,0,.29.02.59.02.89Z"/>
        <path class="cls-1" d="m29.31,1.5c2.32,0,4.39.99,5.97,2.46,1.62-.35,3.16-.93,4.54-1.75.13-.08.27-.12.42-.12.18,0,.36.06.5.17.26.21.37.56.27.88-.3.94-.79,1.77-1.37,2.54.44-.15.93-.17,1.35-.36.11-.05.23-.08.34-.08.23,0,.46.1.62.29.24.28.26.68.05.98-1.04,1.56-2.37,2.9-3.86,4.04,0,.23.03.45.03.69,0,5.49-2.08,11.37-6.07,15.89-3.99,4.53-9.94,7.69-17.52,7.69-4.68,0-9.03-1.38-12.69-3.73-.33-.2-.47-.6-.34-.96.11-.33.42-.54.76-.54h.11c.59.07,1.18.1,1.8.1,2.86,0,5.51-.8,7.79-2.16-2.87-.79-5.19-2.94-6.09-5.76-.08-.27-.02-.56.17-.78.16-.18.38-.28.61-.28.05,0,.09,0,.14.01h.07c-2.28-1.59-3.83-4.19-3.83-7.19v-.1c0-.28.15-.55.4-.69.13-.08.27-.11.41-.11.13,0,.26.03.38.1.2.11.43.16.63.25-1.08-1.47-1.78-3.25-1.78-5.2,0-1.61.43-3.11,1.19-4.42.13-.23.37-.39.64-.41h.06c.25,0,.49.11.64.31,3.61,4.43,8.92,7.32,14.93,7.9-.03-.29-.1-.57-.1-.86,0-4.86,3.95-8.81,8.81-8.81m-7.78,11.45h-.04c-6.42-.32-12.11-3.28-16.17-7.74-.32.81-.56,1.66-.56,2.59,0,2.5,1.27,4.7,3.2,5.99.31.2.45.58.34.94-.11.34-.42.56-.77.56h-.05c-.91-.03-1.75-.25-2.56-.53.5,2.93,2.67,5.28,5.56,5.86.36.08.63.4.64.77s-.23.7-.59.81c-.74.2-1.53.3-2.34.3h-.13c1.2,2.2,3.44,3.76,6.12,3.81.34,0,.64.23.75.56.11.32,0,.68-.26.89-2.55,2-5.71,3.21-9.14,3.48,2.76,1.26,5.82,1.98,9.06,1.98,7.13,0,12.59-2.95,16.3-7.16s5.66-9.72,5.66-14.8c0-.33,0-.66-.03-.99-.02-.28.1-.55.33-.71.83-.6,1.59-1.28,2.28-2.03-.77.21-1.5.54-2.31.63-.06.01-.12.02-.18.02-.34,0-.65-.21-.77-.54-.14-.39.04-.82.41-1,.82-.49,1.52-1.14,2.08-1.9-.98.4-1.99.7-3.05.91-.06.01-.12.02-.18.02-.22,0-.43-.09-.59-.25-1.31-1.4-3.18-2.28-5.26-2.28-3.98,0-7.19,3.21-7.19,7.19,0,.56.08,1.12.2,1.65.06.25,0,.51-.17.7-.16.18-.39.29-.63.29M29.31.5c-5.32,0-9.66,4.25-9.81,9.53-5.19-.78-9.79-3.38-13.06-7.39-.34-.43-.86-.68-1.42-.68h-.13c-.6.04-1.14.38-1.44.91-.86,1.49-1.32,3.19-1.32,4.91,0,1.39.32,2.77.93,4.06-.03.02-.06.03-.1.05-.54.32-.88.91-.88,1.54v.11c0,2.65,1.13,5.19,3.07,7.04-.27.44-.34.98-.19,1.48.77,2.41,2.44,4.37,4.62,5.57-1.71.7-3.53,1.06-5.37,1.06-.6,0-1.15-.03-1.69-.09-.07,0-.15-.01-.23-.01-.77,0-1.45.49-1.71,1.21-.29.8.03,1.7.76,2.15,3.95,2.53,8.53,3.88,13.22,3.88,7.22,0,13.7-2.85,18.27-8.03,4.02-4.55,6.32-10.59,6.32-16.55v-.22c1.48-1.2,2.72-2.52,3.67-3.95.45-.66.4-1.57-.12-2.19-.27-.32-.65-.54-1.06-.61.12-.28.23-.55.32-.83.23-.71-.02-1.5-.6-1.97-.32-.25-.72-.39-1.13-.39-.33,0-.65.09-.93.26-1.12.66-2.38,1.17-3.75,1.52-1.81-1.53-4.01-2.37-6.24-2.37h0Zm-7.78,13.45c.54,0,1.04-.23,1.39-.64.37-.44.51-1.03.38-1.58-.12-.5-.18-.98-.18-1.43,0-3.41,2.77-6.19,6.19-6.19,1.7,0,3.35.72,4.53,1.97.31.32.72.51,1.15.56-.17.4-.2.87-.04,1.31.17.49.54.88,1.01,1.07-.3.36-.46.82-.43,1.3,0,.29.02.6.02.92,0,5.01-2.02,10.3-5.41,14.14-2.74,3.11-7.67,6.82-15.55,6.82-1.77,0-3.51-.22-5.21-.66,2.16-.63,4.16-1.64,5.9-3.01.6-.48.83-1.28.59-1.99-.24-.72-.91-1.22-1.67-1.24-1.67-.03-3.19-.74-4.31-1.95.3-.05.6-.12.9-.2.81-.24,1.35-.98,1.32-1.8-.03-.83-.61-1.53-1.42-1.71-1.93-.39-3.5-1.69-4.3-3.46.34.06.69.1,1.06.11h.08c.79,0,1.48-.5,1.72-1.25.26-.79-.06-1.65-.76-2.09-1.7-1.14-2.73-3.07-2.73-5.14,0-.22.02-.43.05-.66,4.29,4.11,9.78,6.51,15.63,6.81h.1,0Z"/>
      </g>
    </g>
  </g>
</svg>