<?xml version="1.0" encoding="UTF-8"?>
<svg id="Layer_2" data-name="Layer 2" xmlns="http://www.w3.org/2000/svg" viewBox="0 0 264.56 68.78">
  <defs>
    <style>
      .cls-1 {
        fill: #fff;
      }

      .cls-2 {
        fill: none;
      }
    </style>
  </defs>
  <g id="Layer_2-2" data-name="Layer 2">
    <g id="Layer_2-2" data-name="Layer 2-2">
      <g>
        <path class="cls-1" d="m253.95,11.8h-5.62c-7.62,0-13.76,1.49-18.23,4.44-1.1.72-2.1,1.54-2.99,2.43-1.05-1.03-2.15-1.87-3.19-2.53-4.69-2.96-11-4.34-19.86-4.34h-16.63c-7.31,0-13.08,1.07-17.57,3.26-2.1-2.31-5.06-3.26-7.77-3.26h-7.19v-.42c0-1.9-.61-11.38-12.61-11.38s-12.54,9.48-12.54,11.38v1.1c-1.64.6-3.18,1.63-4.37,3.18-4.63-2.58-10.73-3.85-18.66-3.85h-15.7c-8.37,0-14.73,1.4-19.44,4.28-1.28.78-2.42,1.68-3.44,2.67-1.07-1.07-2.2-1.93-3.27-2.61-4.69-2.96-11-4.34-19.86-4.34h-16.63c-8.37,0-14.73,1.4-19.44,4.28C3.18,19.6,0,25.37,0,32.33v15.62c0,6.92,3.17,12.68,8.93,16.22,4.73,2.9,11.09,4.31,19.45,4.31h8.57c4.89,0,10.59-3.06,10.59-11.67,0-1.73-.23-3.23-.64-4.53h14.17c.5,0,1.03-.02,1.57-.05v5.16c0,1.9.6,11.38,12.54,11.38s12.61-9.48,12.61-11.38v-22.08c.81-.13,1.95-.24,3.52-.24h15.12c1.57,0,2.71.11,3.52.24v22.08c0,1.9.6,11.38,12.54,11.38,5.08,0,8.11-1.7,9.93-3.8,1.8,2.1,4.82,3.8,9.87,3.8,12,0,12.61-9.48,12.61-11.38v-22.31h4.16v12.88c0,6.92,3.17,12.68,8.93,16.22,4.73,2.9,11.09,4.31,19.45,4.31h8.57c4.89,0,10.59-3.06,10.59-11.67,0-1.73-.23-3.23-.64-4.53h14.17c.5,0,1.03-.02,1.57-.05v5.16c0,1.9.6,11.38,12.54,11.38s12.61-9.48,12.61-11.38v-22.27c.42-.02.92-.04,1.5-.04h5.62c4.89,0,10.59-3.04,10.59-11.6s-5.71-11.67-10.59-11.67l-.02-.02Z"/>
        <path class="cls-2" d="m44.72,27.07h-16.06c-8.06,0-11.52,2.3-11.52,5.26v4.82h39.1v-4.82c0-3.31-3.46-5.26-11.52-5.26Z"/>
        <path class="cls-2" d="m253.95,16.3h-5.62c-10.35,0-17.2,2.91-20.35,8.64l-.88,1.61-.87-1.62c-3.09-5.73-10.55-8.63-22.17-8.63h-16.63c-8.07,0-14.19,1.46-18.2,4.33l-1.1.79-.43-1.28c-1.11-3.33-3.99-3.83-5.61-3.83h-11.69v-4.92c0-3.14-1.41-6.88-8.11-6.88s-8.04,3.74-8.04,6.88v4.89l-.95.04c-2.08.09-4.72,1-5.5,4.75l-.35,1.69-1.29-1.15c-3.94-3.52-10.48-5.3-19.43-5.3h-15.7c-11.46,0-18.9,2.9-22.1,8.61l-.89,1.58-.87-1.59c-3.1-5.71-10.55-8.6-22.16-8.6h-16.63c-15.62,0-23.88,5.54-23.88,16.03v15.62c0,5.99,3.1,16.03,23.88,16.03h8.57c2.28,0,6.09-.93,6.09-7.17,0-5.27-2.78-6.74-5.11-7.04l.13-1.99h23.01c.95,0,2.93,0,4.63-.84l1.45-.72v11.17c0,3.14,1.39,6.88,8.04,6.88s8.11-3.74,8.11-6.88v-25.18l.47-.29c.8-.5,2.84-1.34,7.55-1.34h15.12c4.72,0,6.76.84,7.55,1.34l.47.29v25.18c0,3.14,1.39,6.88,8.04,6.88s8.11-3.74,8.11-6.88v-25.06c0-.32,0-.64-.03-.97l-.07-1.35,1.31.33c.61.15,1.14.21,1.48.22l.95.04v26.78c0,3.14,1.39,6.88,8.04,6.88s8.11-3.74,8.11-6.88v-26.81h11.69c.13,0,.27,0,.43-.01l1.1-.06-.04,1.1c0,.25,0,.49,0,.73v15.62c0,5.99,3.1,16.03,23.88,16.03h8.57c2.28,0,6.09-.93,6.09-7.17,0-5.27-2.78-6.74-5.11-7.04l.13-1.99h23.01c.95,0,2.93,0,4.63-.84l1.45-.72v11.17c0,3.14,1.39,6.88,8.04,6.88s8.11-3.74,8.11-6.88v-25.76l.57-.3c.59-.28,2.08-.75,5.43-.75h5.62c2.28,0,6.09-.92,6.09-7.1s-3.82-7.17-6.09-7.17l-.04-.02Zm-188.56,24.31c0,2.81-.65,3.67-4.32,3.67H17.14v3.67c0,2.88,3.46,5.26,11.52,5.26h8.28c2.16,0,2.59,1.22,2.59,3.6s-.43,3.67-2.59,3.67h-8.57c-13.54,0-20.38-4.18-20.38-12.53v-15.62c0-8.42,6.84-12.53,20.38-12.53h16.63c14.4,0,20.38,4.1,20.38,12.53v8.28h.01Zm61.7,16.78c0,2.74-1.51,3.38-4.61,3.38s-4.54-.65-4.54-3.38v-25.06c0-2.95-3.46-5.26-11.52-5.26h-15.12c-8.06,0-11.52,2.3-11.52,5.26v25.06c0,2.74-1.51,3.38-4.61,3.38s-4.54-.65-4.54-3.38v-25.06c0-8.42,6.84-12.53,20.38-12.53h15.7c13.54,0,20.38,4.1,20.38,12.53,0,0,0,25.06,0,25.06Zm34.99-30.31h-15.19v30.31c0,2.74-1.51,3.38-4.61,3.38s-4.54-.65-4.54-3.38v-30.31h-4.1c-2.16,0-2.59-1.22-2.59-3.6s.43-3.67,2.59-3.67h4.1v-8.42c0-2.74,1.51-3.38,4.54-3.38s4.61.65,4.61,3.38v8.42h15.19c2.16,0,2.59,1.3,2.59,3.67s-.43,3.6-2.59,3.6Zm62.35,13.54c0,2.81-.65,3.67-4.32,3.67h-43.92v3.67c0,2.88,3.46,5.26,11.52,5.26h8.28c2.16,0,2.59,1.22,2.59,3.6s-.43,3.67-2.59,3.67h-8.57c-13.54,0-20.38-4.18-20.38-12.53v-15.62c0-8.42,6.84-12.53,20.38-12.53h16.63c14.4,0,20.38,4.1,20.38,12.53v8.28Zm29.52-13.54h-5.62c-7.13,0-9.5,1.87-9.5,5.18v25.13c0,2.74-1.51,3.38-4.61,3.38s-4.54-.65-4.54-3.38v-25.13c0-8.28,6.62-12.46,18.65-12.46h5.62c2.16,0,2.59,1.3,2.59,3.67s-.43,3.6-2.59,3.6h0Z"/>
        <path class="cls-2" d="m203.77,27.07h-16.06c-8.06,0-11.52,2.3-11.52,5.26v4.82h39.1v-4.82c0-3.31-3.46-5.26-11.52-5.26Z"/>
        <path d="m45.01,19.8h-16.63c-13.54,0-20.38,4.1-20.38,12.53v15.62c0,8.35,6.84,12.53,20.38,12.53h8.57c2.16,0,2.59-1.3,2.59-3.67s-.43-3.6-2.59-3.6h-8.28c-8.06,0-11.52-2.38-11.52-5.26v-3.67h43.92c3.67,0,4.32-.86,4.32-3.67v-8.28c0-8.42-5.98-12.53-20.38-12.53Zm11.23,17.35H17.14v-4.82c0-2.95,3.46-5.26,11.52-5.26h16.06c8.06,0,11.52,1.94,11.52,5.26,0,0,0,4.82,0,4.82Z"/>
        <path d="m106.71,19.8h-15.7c-13.54,0-20.38,4.1-20.38,12.53v25.06c0,2.74,1.51,3.38,4.54,3.38s4.61-.65,4.61-3.38v-25.06c0-2.95,3.46-5.26,11.52-5.26h15.12c8.06,0,11.52,2.3,11.52,5.26v25.06c0,2.74,1.51,3.38,4.54,3.38s4.61-.65,4.61-3.38v-25.06c0-8.42-6.84-12.53-20.38-12.53Z"/>
        <path d="m162.08,19.8h-15.19v-8.42c0-2.74-1.51-3.38-4.61-3.38s-4.54.65-4.54,3.38v8.42h-4.1c-2.16,0-2.59,1.3-2.59,3.67s.43,3.6,2.59,3.6h4.1v30.31c0,2.74,1.51,3.38,4.54,3.38s4.61-.65,4.61-3.38v-30.31h15.19c2.16,0,2.59-1.22,2.59-3.6s-.43-3.67-2.59-3.67Z"/>
        <path d="m204.06,19.8h-16.63c-13.54,0-20.38,4.1-20.38,12.53v15.62c0,8.35,6.84,12.53,20.38,12.53h8.57c2.16,0,2.59-1.3,2.59-3.67s-.43-3.6-2.59-3.6h-8.28c-8.06,0-11.52-2.38-11.52-5.26v-3.67h43.92c3.67,0,4.32-.86,4.32-3.67v-8.28c0-8.42-5.98-12.53-20.38-12.53Zm11.23,17.35h-39.1v-4.82c0-2.95,3.46-5.26,11.52-5.26h16.06c8.06,0,11.52,1.94,11.52,5.26v4.82h0Z"/>
        <path d="m253.95,19.8h-5.62c-12.03,0-18.65,4.18-18.65,12.46v25.13c0,2.74,1.51,3.38,4.54,3.38s4.61-.65,4.61-3.38v-25.13c0-3.31,2.38-5.18,9.5-5.18h5.62c2.16,0,2.59-1.22,2.59-3.6s-.43-3.67-2.59-3.67h0Z"/>
        <path d="m253.95,14.3h-5.62c-12.42,0-18.37,4.21-21.22,8.26-3.85-5.48-11.59-8.26-23.06-8.26h-16.63c-7.84,0-14,1.35-18.33,4.01-1.82-3.59-5.44-4.01-7.01-4.01h-9.69v-2.92c0-2.67-.98-8.88-10.11-8.88s-10.04,6.21-10.04,8.88v3.03c-1.85.28-4.67,1.29-5.98,4.73-4.37-3.21-10.93-4.83-19.55-4.83h-15.7c-11.32,0-19.03,2.77-22.96,8.24-3.85-5.47-11.59-8.24-23.05-8.24h-16.63c-21.38,0-25.87,9.79-25.87,18.02v15.62c0,6.73,3.36,18.03,25.88,18.03h8.57c1.9,0,8.09-.66,8.09-9.17,0-3.55-1.12-5.71-2.51-7.03h18.54c.85,0,2.42,0,4.07-.49v8.09c0,2.67.98,8.88,10.04,8.88s10.11-6.21,10.11-8.88v-24.01c.78-.32,2.54-.81,6.02-.81h15.12c3.48,0,5.25.49,6.02.81v24.01c0,2.67.98,8.88,10.04,8.88,7.3,0,9.39-3.98,9.93-6.94.54,2.96,2.61,6.94,9.86,6.94,9.12,0,10.11-6.21,10.11-8.88v-24.81h9.16v15.38c0,6.73,3.36,18.03,25.88,18.03h8.57c1.9,0,8.09-.66,8.09-9.17,0-3.55-1.12-5.71-2.51-7.03h18.54c.85,0,2.42,0,4.07-.49v8.09c0,2.67.98,8.88,10.04,8.88s10.11-6.21,10.11-8.88v-24.45c.64-.17,1.87-.37,4-.37h5.62c1.9,0,8.09-.66,8.09-9.1s-6.19-9.17-8.09-9.17h0Zm0,16.27h-5.62c-3.35,0-4.84.47-5.43.75l-.57.3v25.76c0,3.14-1.41,6.88-8.11,6.88s-8.04-3.74-8.04-6.88v-11.17l-1.45.72c-1.7.84-3.68.84-4.63.84h-23.01l-.13,1.99c2.33.3,5.11,1.77,5.11,7.04,0,6.24-3.82,7.17-6.09,7.17h-8.57c-20.78,0-23.88-10.04-23.88-16.03v-15.62c0-.24,0-.49,0-.73l.04-1.1-1.1.06c-.15,0-.3.01-.43.01h-11.69v26.81c0,3.14-1.41,6.88-8.11,6.88s-8.04-3.74-8.04-6.88v-26.78l-.95-.04c-.34-.02-.87-.07-1.48-.22l-1.31-.33.07,1.35c.02.32.03.65.03.97v25.06c0,3.14-1.41,6.88-8.11,6.88s-8.04-3.74-8.04-6.88v-25.18l-.47-.29c-.8-.5-2.84-1.34-7.55-1.34h-15.12c-4.72,0-6.76.84-7.55,1.34l-.47.29v25.18c0,3.14-1.41,6.88-8.11,6.88s-8.04-3.74-8.04-6.88v-11.17l-1.45.72c-1.7.84-3.68.84-4.63.84h-23.01l-.13,1.99c2.33.3,5.11,1.77,5.11,7.04,0,6.24-3.82,7.17-6.09,7.17h-8.57c-20.78,0-23.88-10.04-23.88-16.03v-15.62c0-10.49,8.26-16.03,23.88-16.03h16.63c11.61,0,19.06,2.89,22.16,8.6l.87,1.59.89-1.58c3.2-5.71,10.63-8.61,22.1-8.61h15.7c8.95,0,15.48,1.78,19.43,5.3l1.29,1.15.35-1.69c.78-3.75,3.43-4.65,5.5-4.75l.95-.04v-4.89c0-3.14,1.39-6.88,8.04-6.88s8.11,3.74,8.11,6.88v4.92h11.69c1.62,0,4.5.5,5.61,3.83l.43,1.28,1.1-.79c4.01-2.87,10.14-4.33,18.2-4.33h16.63c11.63,0,19.09,2.9,22.17,8.63l.87,1.62.88-1.61c3.15-5.73,9.99-8.64,20.35-8.64h5.62c2.28,0,6.09.93,6.09,7.17s-3.82,7.1-6.09,7.1l.04.02Z"/>
      </g>
    </g>
  </g>
</svg>