<?xml version="1.0" encoding="UTF-8"?>
<svg id="Layer_2" data-name="Layer 2" xmlns="http://www.w3.org/2000/svg" viewBox="0 0 36.94 36.94">
  <defs>
    <style>
      .cls-1 {
        fill: #fff;
      }
    </style>
  </defs>
  <g id="Layer_2-2" data-name="Layer 2">
    <g id="Layer_1-2" data-name="Layer 1-2">
      <g>
        <g>
          <path d="m18.47,8.49c-5.5,0-9.98,4.48-9.98,9.98s4.48,9.98,9.98,9.98,9.98-4.48,9.98-9.98-4.48-9.98-9.98-9.98Zm0,15.42c-3,0-5.44-2.44-5.44-5.44s2.44-5.44,5.44-5.44,5.44,2.44,5.44,5.44-2.44,5.44-5.44,5.44Z"/>
          <path d="m25.41,0h-13.88C5.17,0,0,5.17,0,11.52v13.88c0,6.31,5.09,11.45,11.38,11.53.05,0,.1.01.15.01h13.88c6.36,0,11.53-5.17,11.53-11.53v-13.88c0-6.36-5.17-11.53-11.53-11.53Zm6.98,11.52v13.88c0,3.85-3.13,6.98-6.98,6.98h-13.88c-3.85,0-6.98-3.13-6.98-6.98v-13.88c0-3.85,3.13-6.98,6.98-6.98h13.88c3.85,0,6.98,3.13,6.98,6.98Z"/>
          <circle cx="27.72" cy="9.22" r="3.04"/>
        </g>
        <path class="cls-1" d="m25.41,1.5c5.53,0,10.03,4.5,10.03,10.03v13.88c0,5.53-4.5,10.03-10.03,10.03h-13.88c-5.53,0-10.03-4.5-10.03-10.03v-13.88C1.5,6,6,1.5,11.53,1.5h13.88m-13.88,32.39h13.88c4.69,0,8.48-3.79,8.48-8.48v-13.88c0-4.69-3.79-8.48-8.48-8.48h-13.88c-4.7-.01-8.49,3.78-8.49,8.48v13.88c0,4.69,3.79,8.48,8.48,8.48M27.72,7.67c.85,0,1.54.69,1.54,1.54s-.69,1.54-1.54,1.54-1.54-.69-1.54-1.54.69-1.54,1.54-1.54m-9.25,2.31c4.68,0,8.48,3.81,8.48,8.48s-3.81,8.48-8.48,8.48-8.48-3.81-8.48-8.48,3.81-8.48,8.48-8.48m0,15.42c3.84,0,6.94-3.1,6.94-6.94s-3.1-6.94-6.94-6.94-6.94,3.1-6.94,6.94,3.1,6.94,6.94,6.94M25.41.5h-13.88C5.45.5.5,5.45.5,11.53v13.88c0,6.08,4.95,11.03,11.03,11.03h13.88c6.08,0,11.03-4.95,11.03-11.03v-13.88c0-6.08-4.95-11.03-11.03-11.03h0Zm-13.88,32.39c-4.13,0-7.48-3.36-7.48-7.48v-13.88c0-4.13,3.36-7.48,7.48-7.48h13.88c4.13,0,7.48,3.36,7.48,7.48v13.88c0,4.13-3.36,7.48-7.48,7.48h-13.88ZM27.72,6.67c-1.4,0-2.54,1.14-2.54,2.54s1.14,2.54,2.54,2.54,2.54-1.14,2.54-2.54-1.14-2.54-2.54-2.54h0Zm-9.25,2.31c-5.23,0-9.48,4.25-9.48,9.48s4.25,9.48,9.48,9.48,9.48-4.25,9.48-9.48-4.25-9.48-9.48-9.48h0Zm0,15.42c-3.28,0-5.94-2.67-5.94-5.94s2.67-5.94,5.94-5.94,5.94,2.67,5.94,5.94-2.67,5.94-5.94,5.94h0Z"/>
      </g>
    </g>
  </g>
</svg>