<?xml version="1.0" encoding="UTF-8"?>
<svg id="Layer_2" data-name="Layer 2" xmlns="http://www.w3.org/2000/svg" viewBox="0 0 35.93 35.93">
  <defs>
    <style>
      .cls-1 {
        fill: #fff;
      }
    </style>
  </defs>
  <g id="Layer_1-2" data-name="Layer 1">
    <g>
      <path class="cls-1" d="m11.03,35.43c-5.8,0-10.53-4.72-10.53-10.53v-13.88C.5,5.22,5.22.5,11.03.5h13.88c5.8,0,10.53,4.72,10.53,10.53v13.88c0,5.8-4.72,10.53-10.53,10.53h-13.88Zm0-32.39c-4.4,0-7.98,3.58-7.98,7.98v13.88c0,4.4,3.58,7.98,7.98,7.98h13.88c4.4,0,7.98-3.58,7.98-7.98v-13.88c0-4.4-3.58-7.98-7.98-7.98h-13.88Zm6.94,23.91c-4.95,0-8.98-4.03-8.98-8.98s4.03-8.98,8.98-8.98,8.98,4.03,8.98,8.98-4.03,8.98-8.98,8.98Zm0-15.42c-3.55,0-6.44,2.89-6.44,6.44s2.89,6.44,6.44,6.44,6.44-2.89,6.44-6.44-2.89-6.44-6.44-6.44Zm9.25-.77c-1.13,0-2.04-.92-2.04-2.04s.92-2.04,2.04-2.04,2.04.92,2.04,2.04-.92,2.04-2.04,2.04Z"/>
      <path d="m24.91,1c5.53,0,10.03,4.5,10.03,10.03v13.88c0,5.53-4.5,10.03-10.03,10.03h-13.88c-5.53,0-10.03-4.5-10.03-10.03v-13.88C1,5.5,5.5,1,11.03,1h13.88m-13.88,32.39h13.88c4.69,0,8.48-3.79,8.48-8.48v-13.88c0-4.69-3.79-8.48-8.48-8.48h-13.88C6.33,2.54,2.54,6.33,2.54,11.03v13.88c0,4.69,3.79,8.48,8.48,8.48M27.22,7.17c.85,0,1.54.69,1.54,1.54s-.69,1.54-1.54,1.54-1.54-.69-1.54-1.54.69-1.54,1.54-1.54m-9.25,2.31c4.68,0,8.48,3.81,8.48,8.48s-3.81,8.48-8.48,8.48-8.48-3.81-8.48-8.48,3.81-8.48,8.48-8.48m0,15.42c3.84,0,6.94-3.1,6.94-6.94s-3.1-6.94-6.94-6.94-6.94,3.1-6.94,6.94,3.1,6.94,6.94,6.94M24.91,0h-13.88C4.95,0,0,4.95,0,11.03v13.88c0,6.08,4.95,11.03,11.03,11.03h13.88c6.08,0,11.03-4.95,11.03-11.03v-13.88c0-6.08-4.95-11.03-11.03-11.03h0Zm-13.88,32.39c-4.13,0-7.48-3.36-7.48-7.48v-13.88c0-4.13,3.36-7.48,7.48-7.48h13.88c4.13,0,7.48,3.36,7.48,7.48v13.88c0,4.13-3.36,7.48-7.48,7.48h-13.88ZM27.22,6.17c-1.4,0-2.54,1.14-2.54,2.54s1.14,2.54,2.54,2.54,2.54-1.14,2.54-2.54-1.14-2.54-2.54-2.54h0Zm-9.25,2.31c-5.23,0-9.48,4.25-9.48,9.48s4.25,9.48,9.48,9.48,9.48-4.25,9.48-9.48-4.25-9.48-9.48-9.48h0Zm0,15.42c-3.28,0-5.94-2.67-5.94-5.94s2.67-5.94,5.94-5.94,5.94,2.67,5.94,5.94-2.67,5.94-5.94,5.94h0Z"/>
    </g>
  </g>
</svg>