<?xml version="1.0" encoding="UTF-8"?>
<svg id="Layer_2" data-name="Layer 2" xmlns="http://www.w3.org/2000/svg" viewBox="0 0 42.54 28.69">
  <defs>
    <style>
      .cls-1 {
        fill: #fff;
        stroke: #000;
        stroke-linejoin: round;
      }
    </style>
  </defs>
  <g id="Layer_1-2" data-name="Layer 1">
    <path class="cls-1" d="m21.22,28.19c-5.4,0-10.8,0-16.2,0-2.8,0-4.52-1.73-4.52-4.54,0-6.21,0-12.41,0-18.62,0-2.81,1.72-4.54,4.52-4.54,10.84,0,21.69,0,32.53,0,2.75,0,4.48,1.74,4.49,4.5,0,6.23,0,12.46,0,18.69,0,2.76-1.73,4.5-4.48,4.5-5.45,0-10.89,0-16.34,0ZM37.22,3.32H5.33c.13.15.2.24.28.32,3.96,3.96,7.91,7.94,11.89,11.89,2.22,2.2,5.36,2.16,7.6-.06,3.91-3.88,7.8-7.79,11.7-11.68.13-.13.24-.26.42-.46ZM5.45,25.37h31.5c-2.91-2.93-5.89-5.93-8.92-8.98-1.73,2.08-3.9,3.48-6.77,3.48-2.89,0-5.06-1.44-6.82-3.5-3.04,3.05-6.02,6.02-8.99,9ZM3.32,5.48v17.75c2.97-2.97,5.95-5.95,8.87-8.87-2.93-2.93-5.91-5.91-8.87-8.87Zm27.1,8.84c2.91,2.92,5.88,5.9,8.82,8.85V5.48c-2.95,2.96-5.92,5.94-8.82,8.84Z"/>
    <path class="cls-1" d="m21.22,28.19c-5.4,0-10.8,0-16.2,0-2.8,0-4.52-1.73-4.52-4.54,0-6.21,0-12.41,0-18.62,0-2.81,1.72-4.54,4.52-4.54,10.84,0,21.69,0,32.53,0,2.75,0,4.48,1.74,4.49,4.5,0,6.23,0,12.46,0,18.69,0,2.76-1.73,4.5-4.48,4.5-5.45,0-10.89,0-16.34,0ZM37.22,3.32H5.33c.13.15.2.24.28.32,3.96,3.96,7.91,7.94,11.89,11.89,2.22,2.2,5.36,2.16,7.6-.06,3.91-3.88,7.8-7.79,11.7-11.68.13-.13.24-.26.42-.46ZM5.45,25.37h31.5c-2.91-2.93-5.89-5.93-8.92-8.98-1.73,2.08-3.9,3.48-6.77,3.48-2.89,0-5.06-1.44-6.82-3.5-3.04,3.05-6.02,6.02-8.99,9ZM3.32,5.48v17.75c2.97-2.97,5.95-5.95,8.87-8.87-2.93-2.93-5.91-5.91-8.87-8.87Zm27.1,8.84c2.91,2.92,5.88,5.9,8.82,8.85V5.48c-2.95,2.96-5.92,5.94-8.82,8.84Z"/>
  </g>
</svg>