<?xml version="1.0" encoding="UTF-8"?>
<svg id="Layer_2" data-name="Layer 2" xmlns="http://www.w3.org/2000/svg" viewBox="0 0 43.54 29.7">
  <defs>
    <style>
      .cls-1 {
        fill: #fff;
      }
    </style>
  </defs>
  <g id="Layer_2-2" data-name="Layer 2">
    <g id="Layer_1-2" data-name="Layer 1-2">
      <g>
        <path d="m38.05,0H5.52C2.17,0,0,2.17,0,5.54v18.62c0,3.37,2.17,5.54,5.52,5.54h16.2s.1,0,.14-.01h16.2c3.28,0,5.48-2.21,5.48-5.5V5.5c-.01-3.34-2.17-5.5-5.49-5.5Zm-5.85,7.98c-2.43,2.43-4.86,4.87-7.3,7.29-1.87,1.85-4.36,1.88-6.19.06-2.65-2.63-5.29-5.28-7.93-7.92l-2.57-2.58h27.15l-3.16,3.15Zm-21.07,14.13c1.25-1.25,2.51-2.51,3.78-3.79,2.03,2.05,4.28,3.05,6.85,3.05s4.84-1.02,6.81-3.03l6.48,6.53H8.36c.92-.92,1.84-1.84,2.77-2.77Zm.15-7.24l-6.46,6.46v-12.91l6.46,6.46Zm27.46-6.46v12.85l-6.41-6.43c2.11-2.12,4.26-4.27,6.41-6.42Z"/>
        <path class="cls-1" d="m21.72,29.2H5.52c-3.1,0-5.02-1.93-5.02-5.04V5.54C.5,2.43,2.42.5,5.52.5h32.53c3.02,0,4.98,1.96,4.99,5v18.69c0,3.04-1.95,5-4.98,5h-16.24s-.06.01-.1.01ZM5.52,1.5C3,1.5,1.5,3.01,1.5,5.54v18.62c0,2.53,1.5,4.04,4.02,4.04h16.1s.07-.01.1-.01h16.34c2.46,0,3.98-1.53,3.98-4V5.5c0-2.5-1.5-4-3.99-4H5.52Zm31.93,24.88H5.95c-.2,0-.38-.12-.46-.31-.08-.19-.03-.4.11-.54,1.49-1.49,2.97-2.98,4.47-4.47s3-3,4.52-4.53c.1-.1.24-.15.37-.15.14,0,.27.07.36.17,1.91,2.24,4.02,3.32,6.44,3.32s4.54-1.08,6.39-3.3c.09-.11.22-.17.36-.18.14,0,.28.05.38.15l8.92,8.98c.14.14.18.36.11.54-.08.19-.26.31-.46.31Zm-30.3-1h29.09l-7.69-7.75c-1.96,2.18-4.19,3.25-6.8,3.25s-4.82-1.07-6.84-3.27c-1.39,1.4-2.77,2.78-4.15,4.15-1.21,1.21-2.42,2.42-3.62,3.62Zm-3.33-1.14c-.06,0-.13-.01-.19-.04-.19-.08-.31-.26-.31-.46V5.99c0-.28.22-.5.5-.5.17,0,.32.08.41.21l8.82,8.82c.09.09.15.22.15.35s-.05.26-.15.35l-8.87,8.87c-.1.1-.22.15-.35.15Zm.5-17.03v15.33l7.66-7.66-7.66-7.66Zm35.42,16.97c-.13,0-.26-.05-.35-.15l-8.82-8.85c-.19-.2-.19-.51,0-.71,2.78-2.78,5.63-5.64,8.46-8.48l.36-.36c.14-.14.36-.19.54-.11.19.08.31.26.31.46v17.69c0,.2-.12.38-.31.46-.06.03-.13.04-.19.04Zm-8.11-9.35l7.61,7.64V7.2c-2.55,2.56-5.11,5.12-7.61,7.63Zm-9.88,3.32c-1.46,0-2.92-.59-4.1-1.76-2.65-2.63-5.3-5.28-7.93-7.93l-3.96-3.96c-.06-.06-.12-.13-.2-.22l-.11-.13c-.13-.15-.16-.36-.08-.54.08-.18.26-.29.45-.29h31.89c.28,0,.5.22.5.5h0c0,.13-.05.25-.13.35l-.14.16c-.11.12-.2.22-.3.32l-4.39,4.39c-2.43,2.43-4.87,4.87-7.31,7.29-1.22,1.21-2.72,1.82-4.2,1.82ZM7,4.33l3.43,3.43c2.64,2.65,5.28,5.29,7.93,7.92,2.01,1.99,4.85,1.97,6.9-.06,2.44-2.42,4.87-4.85,7.31-7.29l4.01-4.01H7Z"/>
      </g>
    </g>
  </g>
</svg>