<?xml version="1.0" encoding="UTF-8"?>
<svg id="Layer_2" data-name="Layer 2" xmlns="http://www.w3.org/2000/svg" viewBox="0 0 253.24 68.78">
  <defs>
    <style>
      .cls-1 {
        fill: #fff;
      }

      .cls-2 {
        fill: none;
        stroke: #231f20;
        stroke-miterlimit: 10;
        stroke-width: 2px;
      }

      .cls-3 {
        fill: #231f20;
      }
    </style>
  </defs>
  <g id="Layer_2-2" data-name="Layer 2">
    <g>
      <path class="cls-1" d="m10.81,64.49c-2,0-6.66-.75-6.66-7.67s4.66-7.6,6.66-7.6h30.53c3.37,0,5.03-.28,5.79-.5v-.86c-.72-.21-2.31-.51-5.5-.51h-16.13c-19.4,0-21.5-10.25-21.5-14.66v-2.09c0-3.47,1.52-14.8,21.14-14.8h9.86c2,0,6.66.75,6.66,7.67s-4.66,7.6-6.66,7.6h-9.94c-2.22,0-3.41.26-3.99.46v.18c.6.21,1.89.51,4.35.51h15.91c19.02,0,23.01,8.13,23.01,14.94v2.3c0,6.85-4.23,15.02-24.38,15.02H10.81Z"/>
      <path class="cls-1" d="m35,19.81c2.16,0,2.66,1.22,2.66,3.67s-.5,3.6-2.66,3.6h-9.94c-5.4,0-7.99,1.37-7.99,3.6v1.87c0,2.23,2.59,3.67,8.35,3.67h15.91c13.47,0,19.01,4.03,19.01,10.94v2.3c0,6.91-5.9,11.02-20.38,11.02H10.81c-2.16,0-2.66-1.22-2.66-3.67s.5-3.6,2.66-3.6h30.53c7.7,0,9.79-1.37,9.79-3.6v-2.59c0-2.23-2.09-3.67-9.5-3.67h-16.13c-11.59,0-17.5-4.03-17.5-10.66v-2.09c0-6.7,5.9-10.8,17.14-10.8h9.86m0-8h-9.86C6.6,11.81,0,21.52,0,30.61v2.09c0,4.79,1.89,9.75,6.47,13.35-3.44,1.4-6.33,4.7-6.33,10.77,0,8.62,5.74,11.67,10.66,11.67h29.16c8.54,0,14.95-1.3,19.61-3.98,5.66-3.25,8.77-8.59,8.77-15.04v-2.3c0-6.34-2.94-11.63-8.29-14.89-3.79-2.31-8.76-3.61-15.14-3.96.48-1.37.75-2.97.75-4.84,0-8.62-5.74-11.67-10.66-11.67h0Zm-12.61,16.13h0,0Z"/>
    </g>
    <g>
      <path class="cls-1" d="m70.86,64.78c-7.43,0-8.54-4.63-8.54-7.38v-26.31h-.1c-2.46,0-6.59-.99-6.59-7.6s4.61-7.67,6.59-7.67h.1v-4.42c0-2.76,1.11-7.38,8.54-7.38s8.61,4.02,8.61,7.38v4.42h11.19c1.98,0,6.59.75,6.59,7.67s-4.13,7.6-6.59,7.6h-11.19v26.31c0,3.37-1.49,7.38-8.61,7.38Z"/>
      <path class="cls-1" d="m70.86,8c3.1,0,4.61.65,4.61,3.38v8.42h15.19c2.16,0,2.59,1.3,2.59,3.67s-.43,3.6-2.59,3.6h-15.19v30.31c0,2.74-1.51,3.38-4.61,3.38s-4.54-.65-4.54-3.38v-30.31h-4.1c-2.16,0-2.59-1.22-2.59-3.6s.43-3.67,2.59-3.67h4.1v-8.42c0-2.74,1.51-3.38,4.54-3.38m0-8c-11.93,0-12.54,9.48-12.54,11.38v1.1c-3.59,1.31-6.7,4.64-6.7,11s3.11,9.63,6.7,10.93v22.99c0,1.9.6,11.38,12.54,11.38s12.61-9.48,12.61-11.38v-22.31h7.19c4.89,0,10.59-3.04,10.59-11.6s-5.71-11.67-10.59-11.67h-7.19v-.42c0-1.9-.61-11.38-12.61-11.38h0Z"/>
    </g>
    <g>
      <path class="cls-1" d="m116,64.49c-20.15,0-24.38-8.99-24.38-16.53v-15.62c0-7.54,4.23-16.53,24.38-16.53h15.7c20.15,0,24.38,8.99,24.38,16.53v15.62c0,7.54-4.23,16.53-24.38,16.53h-15.7Zm10.54-20.21v-8.26h-5.38v8.26h5.38Z"/>
      <path class="cls-1" d="m131.7,19.81c13.54,0,20.38,4.1,20.38,12.53v15.62c0,8.35-6.84,12.53-20.38,12.53h-15.7c-13.54,0-20.38-4.18-20.38-12.53v-15.62c0-8.42,6.84-12.53,20.38-12.53h15.7m-10.5,28.47h5.3c2.83,0,4.04-1.48,4.04-3.27v-9.72c0-1.84-1.21-3.27-4.04-3.27h-5.3c-2.83,0-4.04,1.43-4.04,3.27v9.72c0,1.79,1.21,3.27,4.04,3.27m10.5-36.47h-15.7c-8.37,0-14.73,1.4-19.44,4.28-5.77,3.52-8.94,9.29-8.94,16.25v15.62c0,6.92,3.17,12.68,8.93,16.22,4.73,2.9,11.09,4.31,19.45,4.31h15.7c8.36,0,14.72-1.41,19.45-4.31,5.76-3.53,8.93-9.29,8.93-16.22v-15.62c0-6.96-3.18-12.73-8.94-16.25-4.71-2.88-11.07-4.28-19.44-4.28h0Z"/>
    </g>
    <g>
      <path class="cls-1" d="m162.44,64.78c-7.43,0-8.54-4.63-8.54-7.38v-25.13c0-4.95,2.21-16.46,22.65-16.46h5.62c1.98,0,6.59.75,6.59,7.67s-4.13,7.6-6.59,7.6h-5.62c-4.22,0-5.33.74-5.49.86,0,.02-.01.13-.01.32v25.13c0,3.37-1.49,7.38-8.61,7.38Z"/>
      <path class="cls-1" d="m182.17,19.81c2.16,0,2.59,1.3,2.59,3.67s-.43,3.6-2.59,3.6h-5.62c-7.13,0-9.5,1.87-9.5,5.18v25.13c0,2.74-1.51,3.38-4.61,3.38s-4.54-.65-4.54-3.38v-25.13c0-8.28,6.62-12.46,18.65-12.46h5.62m0-8h-5.62c-7.62,0-13.76,1.49-18.23,4.44-5.43,3.57-8.42,9.26-8.42,16.02v25.13c0,1.9.6,11.38,12.54,11.38s12.61-9.48,12.61-11.38v-22.27c.42-.02.92-.04,1.5-.04h5.62c4.89,0,10.59-3.04,10.59-11.6s-5.71-11.67-10.59-11.67h0Z"/>
    </g>
    <g>
      <path class="cls-1" d="m208.23,64.49c-20.15,0-24.38-8.99-24.38-16.53v-15.62c0-7.54,4.23-16.53,24.38-16.53h16.63c6.03,0,24.38,0,24.38,16.53v8.28c0,6.88-4.75,7.67-8.32,7.67h-38.98c1.1.45,3.16.93,6.58.93h8.28c2.46,0,6.59.99,6.59,7.6s-4.61,7.67-6.59,7.67h-8.57Zm23.87-31.33v-.8c-.29-.24-1.9-1.28-7.52-1.28h-16.06c-4.95,0-7.04.98-7.52,1.43v.65h31.1Z"/>
      <path class="cls-1" d="m224.87,19.81c14.4,0,20.38,4.1,20.38,12.53v8.28c0,2.81-.65,3.67-4.32,3.67h-43.92v3.67c0,2.88,3.46,5.26,11.52,5.26h8.28c2.16,0,2.59,1.22,2.59,3.6s-.43,3.67-2.59,3.67h-8.57c-13.54,0-20.38-4.18-20.38-12.53v-15.62c0-8.42,6.84-12.53,20.38-12.53h16.63m-27.87,17.35h39.1v-4.82c0-3.31-3.46-5.26-11.52-5.26h-16.06c-8.06,0-11.52,2.3-11.52,5.26v4.82m27.87-25.35h-16.63c-8.37,0-14.73,1.4-19.44,4.28-5.77,3.52-8.94,9.29-8.94,16.25v15.62c0,6.92,3.17,12.68,8.93,16.22,4.73,2.9,11.09,4.31,19.45,4.31h8.57c4.89,0,10.59-3.06,10.59-11.67,0-1.73-.23-3.23-.64-4.53h14.17c2.69,0,6.14-.33,8.93-2.88,3.39-3.09,3.39-7.24,3.39-8.8v-8.28c0-8.94-4.63-13.74-8.52-16.19-4.69-2.96-11-4.34-19.86-4.34h0Z"/>
    </g>
    <path class="cls-3" d="m8,30.61c0-6.7,5.9-10.8,17.14-10.8h9.86c2.16,0,2.66,1.22,2.66,3.67s-.5,3.6-2.66,3.6h-9.94c-5.4,0-7.99,1.37-7.99,3.6v1.87c0,2.23,2.59,3.67,8.35,3.67h15.91c13.47,0,19.01,4.03,19.01,10.94v2.3c0,6.91-5.9,11.02-20.38,11.02H10.81c-2.16,0-2.66-1.22-2.66-3.67s.5-3.6,2.66-3.6h30.53c7.7,0,9.79-1.37,9.79-3.6v-2.59c0-2.23-2.09-3.67-9.5-3.67h-16.13c-11.59,0-17.5-4.03-17.5-10.66v-2.09Z"/>
    <path class="cls-3" d="m66.32,19.81v-8.42c0-2.74,1.51-3.38,4.54-3.38s4.61.65,4.61,3.38v8.42h15.19c2.16,0,2.59,1.3,2.59,3.67s-.43,3.6-2.59,3.6h-15.19v30.31c0,2.74-1.51,3.38-4.61,3.38s-4.54-.65-4.54-3.38v-30.31h-4.1c-2.16,0-2.59-1.22-2.59-3.6s.43-3.67,2.59-3.67h4.1Z"/>
    <path class="cls-3" d="m116,19.81h15.7c13.54,0,20.38,4.1,20.38,12.53v15.62c0,8.35-6.84,12.53-20.38,12.53h-15.7c-13.54,0-20.38-4.18-20.38-12.53v-15.62c0-8.42,6.84-12.53,20.38-12.53Zm26.93,12.53c0-2.95-3.46-5.26-11.52-5.26h-15.12c-8.06,0-11.52,2.3-11.52,5.26v15.62c0,2.88,3.46,5.26,11.52,5.26h15.12c8.06,0,11.52-2.38,11.52-5.26v-15.62Z"/>
    <path class="cls-3" d="m182.17,19.81c2.16,0,2.59,1.3,2.59,3.67s-.43,3.6-2.59,3.6h-5.62c-7.13,0-9.5,1.87-9.5,5.18v25.13c0,2.74-1.51,3.38-4.61,3.38s-4.54-.65-4.54-3.38v-25.13c0-8.28,6.62-12.46,18.65-12.46h5.62Z"/>
    <path class="cls-3" d="m197,44.29v3.67c0,2.88,3.46,5.26,11.52,5.26h8.28c2.16,0,2.59,1.22,2.59,3.6s-.43,3.67-2.59,3.67h-8.57c-13.54,0-20.38-4.18-20.38-12.53v-15.62c0-8.42,6.84-12.53,20.38-12.53h16.63c14.4,0,20.38,4.1,20.38,12.53v8.28c0,2.81-.65,3.67-4.32,3.67h-43.92Zm0-7.13h39.1v-4.82c0-3.31-3.46-5.26-11.52-5.26h-16.06c-8.06,0-11.52,2.3-11.52,5.26v4.82Z"/>
    <path class="cls-2" d="m41.34,48.72H10.81c-2.15,0-7.16.79-7.16,8.1s5.01,8.17,7.16,8.17h29.16c12.14,0,18.61-2.94,21.88-6.81.22,2.96,1.81,7.1,9,7.1,7.93,0,9.11-4.94,9.11-7.88v-25.81h10.69c.15,0,.31,0,.48-.01,0,.26-.02.52-.02.77v15.62c0,6.36,3.23,17.03,24.88,17.03h15.7c12.13,0,18.47-3.35,21.71-7.41.05,2.96,1.33,7.7,9.03,7.7s9.11-4.94,9.11-7.88v-25.16c.43-.2,1.75-.66,5-.66h5.62c.34,0,.75-.02,1.2-.09-.01.28-.02.56-.02.84v15.62c0,6.36,3.23,17.03,24.88,17.03h8.57c2.13,0,7.09-.8,7.09-8.17,0-6.22-3.59-7.72-5.98-8.03h23.01c2.18,0,8.82,0,8.82-8.17v-8.28c0-11.3-8.37-17.03-24.88-17.03h-16.63c-9.59,0-15.64,2.01-19.37,4.95-1.22-4.39-4.92-4.95-6.69-4.95h-5.62c-13.45,0-19.17,4.91-21.54,9.77-2.61-5.32-9.06-9.77-23.31-9.77h-15.7c-9.1,0-15.02,1.82-18.78,4.51-1.33-3.99-4.85-4.51-6.56-4.51h-10.69v-3.92c0-2.94-1.18-7.88-9.11-7.88s-9.04,4.94-9.04,7.88v3.93c-2.29.1-6.7,1.21-6.7,8.16s4.4,7.99,6.7,8.09v6.7c-3.15-3.73-9.24-6.54-20.48-6.54h-15.91c-.81,0-1.49-.03-2.06-.08.48-.04,1.04-.06,1.7-.06h9.94c2.15,0,7.16-.79,7.16-8.1s-5.01-8.17-7.16-8.17h-9.86C5.06,15.31,3.5,27.02,3.5,30.61v2.09c0,3.56,1.59,15.16,22,15.16h16.13c2.71,0,4.21.21,5,.4v.08c-.83.18-2.42.39-5.29.39Zm67.93-1.22v-14.73c.54-.34,2.36-1.19,7.02-1.19h15.12c4.66,0,6.48.85,7.02,1.19v14.73c-.55.35-2.37,1.22-7.02,1.22h-15.12c-4.65,0-6.47-.87-7.02-1.22Z"/>
  </g>
</svg>