<?xml version="1.0" encoding="UTF-8"?>
<svg id="Layer_2" data-name="Layer 2" xmlns="http://www.w3.org/2000/svg" viewBox="0 0 253.25 68.78">
  <defs>
    <style>
      .cls-1 {
        fill: #fff;
      }
    </style>
  </defs>
  <g id="Layer_2-2" data-name="Layer 2">
    <path class="cls-1" d="m244.73,16.14c-4.69-2.96-11-4.34-19.86-4.34h0s-16.63.01-16.63.01c-7.07,0-12.69,1.01-17.1,3.06-.56.26-1.21.18-1.66-.24-2.06-1.98-4.79-2.81-7.31-2.81h0s-5.62-.01-5.62-.01c-7.62,0-13.76,1.49-18.23,4.44-.87.57-1.68,1.21-2.43,1.89-.56.51-1.41.51-1.98,0-.84-.75-1.77-1.43-2.78-2.04-4.71-2.88-11.07-4.28-19.44-4.28h-15.7c-6.82,0-12.31.93-16.66,2.84-.54.23-1.16.16-1.59-.23-2.03-1.83-4.66-2.6-7.09-2.6h-7.19v-.42c0-1.9-.61-11.38-12.61-11.38v-.02c-11.93,0-12.54,9.48-12.54,11.38v1.1c-3.59,1.31-6.7,4.64-6.7,11,0,1.35.14,2.57.4,3.65.24,1.02-.66,1.95-1.69,1.78-1.15-.2-2.36-.35-3.63-.46-.88-.08-1.51-.9-1.33-1.76.2-.97.3-2.03.3-3.2,0-8.62-5.74-11.67-10.66-11.67h0s-9.86-.01-9.86-.01C6.6,11.81,0,21.52,0,30.61v2.09c0,4.2,1.45,8.52,4.89,11.95.7.69.58,1.81-.23,2.36-2.59,1.73-4.52,4.85-4.52,9.81,0,8.62,5.74,11.67,10.66,11.67h29.16c8.54,0,14.95-1.3,19.61-3.98.25-.14.48-.29.72-.44,1.69,2.5,4.8,4.71,10.57,4.71,11.94,0,12.61-9.48,12.61-11.38v-20.81c0-.83.67-1.5,1.5-1.5h1.15c.83,0,1.5.67,1.5,1.5v11.37c0,6.92,3.17,12.68,8.93,16.22,4.73,2.9,11.09,4.31,19.45,4.31h15.7c8.36,0,14.72-1.41,19.45-4.31.19-.12.37-.24.56-.37,1.65,2.6,4.78,4.96,10.73,4.96,11.94,0,12.61-9.48,12.61-11.38v-20.81c0-.82.66-1.5,1.48-1.5,0,0,.01,0,.02,0h1.81c.83,0,1.5.67,1.5,1.5v11.38c0,6.92,3.17,12.68,8.93,16.22,4.73,2.9,11.09,4.31,19.45,4.31h8.57c4.89,0,10.59-3.06,10.59-11.67,0-1.02-.08-1.95-.23-2.82s.57-1.71,1.48-1.71h12.28c2.69,0,6.14-.33,8.93-2.88,3.39-3.09,3.39-7.24,3.39-8.8v-8.28c0-8.94-4.63-13.74-8.52-16.19Zm-105.03,30.59c0,2.41-2.9,4.41-9.65,4.41h-12.67c-6.75,0-9.65-1.99-9.65-4.41v-13.08c0-2.48,2.9-4.41,9.65-4.41h12.67c6.75,0,9.65,1.94,9.65,4.41v13.08Zm91.9-11.59h-30.1c-.22,0-.4-.18-.4-.4v-2.48c0-1.77,2.74-3.15,9.11-3.15h12.7c6.37,0,9.11,1.17,9.11,3.15v2.48c0,.22-.18.4-.4.4Z"/>
    <g>
      <path d="m41.33,36.22h-15.91c-5.76,0-8.35-1.44-8.35-3.67v-1.87c0-2.23,2.59-3.6,7.99-3.6h9.94c2.16,0,2.66-1.15,2.66-3.6s-.5-3.67-2.66-3.67h-9.86c-11.24,0-17.14,4.1-17.14,10.8v2.08c0,6.63,5.91,10.66,17.5,10.66h16.13c7.41,0,9.5,1.44,9.5,3.67v2.59c0,2.23-2.09,3.6-9.79,3.6H10.81c-2.16,0-2.66,1.15-2.66,3.6s.5,3.67,2.66,3.67h29.15c14.48,0,20.38-4.11,20.38-11.02v-2.3c0-6.91-5.54-10.94-19.01-10.94Z"/>
      <path d="m90.66,19.81h-15.19v-8.42c0-2.73-1.58-3.38-4.61-3.38s-4.54.64-4.54,3.38v8.42h-4.1c-2.16,0-2.59,1.29-2.59,3.67s.43,3.6,2.59,3.6h4.1v30.31c0,2.73,1.44,3.38,4.54,3.38s4.61-.64,4.61-3.38v-30.31h15.19c2.16,0,2.59-1.23,2.59-3.6s-.43-3.67-2.59-3.67Z"/>
      <path d="m131.7,19.81h-15.7c-13.54,0-20.38,4.11-20.38,12.53v15.62c0,8.35,6.84,12.53,20.38,12.53h15.7c13.54,0,20.38-4.18,20.38-12.53v-15.62c0-8.43-6.84-12.53-20.38-12.53Zm11.23,28.15c0,2.88-3.46,5.26-11.52,5.26h-15.12c-8.06,0-11.52-2.38-11.52-5.26v-15.62c0-2.96,3.46-5.26,11.52-5.26h15.12c8.06,0,11.52,2.31,11.52,5.26v15.62Z"/>
      <path d="m182.17,19.81h0s-5.62-.01-5.62-.01c-12.03,0-18.65,4.18-18.65,12.46v25.13c0,2.73,1.44,3.38,4.54,3.38s4.61-.64,4.61-3.38v-25.13c0-3.31,2.37-5.18,9.5-5.18h5.62c2.16,0,2.59-1.23,2.59-3.6s-.43-3.67-2.59-3.67Z"/>
      <path d="m224.86,19.81h-16.63c-13.54,0-20.38,4.11-20.38,12.53v15.62c0,8.35,6.84,12.53,20.38,12.53h8.57c2.16,0,2.59-1.29,2.59-3.67s-.43-3.6-2.59-3.6h-8.28c-8.06,0-11.52-2.38-11.52-5.26v-3.67h43.92c3.67,0,4.32-.86,4.32-3.67v-8.28c0-8.43-5.98-12.53-20.38-12.53Zm10.21,17.35h-37.04c-.57,0-1.03-.46-1.03-1.03v-3.79c0-2.96,3.46-5.26,11.52-5.26h16.06c8.06,0,11.52,1.95,11.52,5.26v3.79c0,.57-.46,1.03-1.03,1.03Z"/>
      <path d="m224.85,14.31h-16.63c-7.8,0-13.93,1.33-18.25,3.96-.32.2-.76.11-.94-.22-1.85-3.34-5.31-3.74-6.87-3.74h-5.62c-12.03,0-18.03,3.93-21.01,7.98-.27.37-.81.34-1.08-.02-3.98-5.28-11.61-7.96-22.75-7.96h-15.7c-7.48,0-13.43,1.23-17.71,3.65-.32.18-.73.1-.93-.21-1.9-3.07-5.21-3.44-6.7-3.44h-9.01c-.37,0-.68-.3-.68-.68v-2.24c0-2.67-.99-8.88-10.11-8.88s-10.04,6.21-10.04,8.88v2.46c0,.32-.22.59-.53.66-2.57.53-6.17,2.44-6.17,8.98s3.61,8.38,6.17,8.91c.31.06.53.34.53.66v1.48c0,.54-.61.87-1.05.56-4.14-2.89-10.31-4.35-18.43-4.35h-.91c1.52-1.31,2.74-3.52,2.74-7.24,0-8.51-6.25-9.17-8.16-9.17h-9.89c-8.87,0-15.3,2.24-19.08,6.64-3.07,3.58-3.53,7.58-3.53,9.65v2.09c0,3.09,1.1,11.87,13.05,15.02h-4.74c-1.91,0-8.16.66-8.16,9.1s6.25,9.17,8.16,9.17h29.16c9.28,0,16.16-1.71,20.49-5.1.36-.28.87-.15,1.04.27,1.02,2.56,3.51,5.12,9.35,5.12,9.12,0,10.11-6.21,10.11-8.88v-24.13c0-.37.3-.68.68-.68h7.8c.37,0,.68.3.68.68v14.7c0,6.73,3.36,18.03,25.88,18.03h15.7c9.04,0,15.81-1.83,20.2-5.46.37-.31.92-.16,1.08.29.94,2.63,3.37,5.46,9.46,5.46,9.38,0,10.11-6.8,10.11-8.88v-23.9c0-.33.24-.61.56-.67.72-.13,1.82-.25,3.44-.25h5.62c.06,0,.12,0,.18,0v15.37c0,6.73,3.36,18.03,25.88,18.03h8.57c1.9,0,8.09-.66,8.09-9.17,0-2.73-.66-4.64-1.6-5.98-.31-.44.01-1.05.56-1.05h17.08c6.52,0,9.82-3.08,9.82-9.17v-8.28c0-11.96-8.71-18.03-25.88-18.03Zm23.88,26.31c0,6.35-4.18,7.17-7.82,7.17h-22.38c-.36,0-.65.28-.67.63l-.05.75c-.02.33.2.63.52.7,2.19.46,4.55,2.09,4.55,6.94,0,6.24-3.82,7.17-6.09,7.17h-8.57c-20.78,0-23.88-10.04-23.88-16.03v-15.62c0-.27,0-.54.02-.81l.04-1.21-1.2.19c-.33.05-.69.08-1.05.08h-5.62c-3.14,0-4.68.41-5.42.75l-.58.72v25.35c0,2.57-1.05,6.88-8.11,6.88-6.54,0-7.98-3.65-8.03-6.72l-.05-2.78-1.73,2.17c-3.73,4.67-10.77,7.03-20.93,7.03h-15.7c-20.78,0-23.88-10.04-23.88-16.03v-15.62c0-.11,0-.22,0-.34,0-.14.01-.29.01-.43v-1.06l-1.06.06c-.15,0-.29,0-.42,0h-11.01c-.37,0-.68.3-.68.68v26.13c0,3.14-1.41,6.88-8.11,6.88-5.01,0-7.7-2.08-8-6.17l-.18-2.44-1.58,1.87c-3.62,4.28-10.72,6.46-21.12,6.46H10.81c-2.3,0-6.16-.93-6.16-7.17s3.86-7.1,6.16-7.1h30.53c2.94,0,4.59-.21,5.47-.4.02,0,.05-.01.07-.02l.75-.24v-1.59l-.77-.18c-.81-.2-2.38-.43-5.23-.43h-16.13c-19.49,0-21-10.84-21-14.16v-2.09c0-1.79.4-5.26,3.05-8.34,3.39-3.95,9.3-5.95,17.57-5.95h9.88c2.3,0,6.16.93,6.16,7.17s-3.86,7.1-6.16,7.1h-9.94c-.41,0-.79,0-1.14.02-.36.02-.65.31-.65.68v.73c0,.36.27.66.63.68.47.03.98.04,1.52.04h15.91c9.62,0,16.25,2.08,19.72,6.19l1.76,2.09v-10.39l-.96-.04c-2.62-.11-5.74-1.44-5.74-7.09s3.12-7.05,5.74-7.16l.96-.04v-4.89c0-4.57,2.71-6.88,8.04-6.88,6.7,0,8.11,3.74,8.11,6.88v4.24c0,.37.3.68.68.68h11.01c1.62,0,4.5.5,5.61,3.83l.43,1.29,1.1-.79c4.01-2.87,10.13-4.32,18.2-4.32h15.7c11.87,0,19.41,3.1,22.41,9.21l.9,1.84.9-1.84c2.94-6.02,10.08-9.21,20.64-9.21h5.62c1.7,0,4.71.55,5.73,4.22l.4,1.45,1.18-.93c3.99-3.14,10.29-4.73,18.75-4.73h16.63c15.85,0,23.88,5.39,23.88,16.03v8.28Z"/>
    </g>
  </g>
</svg>