<?xml version="1.0" encoding="UTF-8"?>
<svg id="Layer_2" data-name="Layer 2" xmlns="http://www.w3.org/2000/svg" viewBox="0 0 46.1 35">
  <defs>
    <style>
      .cls-1 {
        fill: #fff;
      }
    </style>
  </defs>
  <g id="Layer_2-2" data-name="Layer 2">
    <g id="Layer_1-2" data-name="Layer 1-2">
      <g>
        <g>
          <path d="m31.3,15.66l-12.11-6.92c-.32-.19-.69-.29-1.07-.29-1.17,0-2.12.95-2.12,2.12v13.86c0,1.17.95,2.12,2.12,2.12h0c.38,0,.75-.1,1.06-.28l12.11-6.92c.67-.37,1.08-1.08,1.08-1.84s-.41-1.46-1.07-1.84Zm-6.81,1.83l-3.49,2v-4l3.49,2Z"/>
          <path d="m45.07,6.53c-.48-2.67-2.71-4.83-5.76-5.52-3.46-.49-9.59-1.01-16.41-1.01-6.45,0-12.9.48-16.43,1.24C3.46,1.93,1.29,4.04.82,6.76c-.38,2.25-.82,5.95-.82,10.74,0,5.06.51,8.66.93,10.77.48,2.67,2.7,4.83,5.68,5.5,3.78.76,10.06,1.23,16.4,1.23s12.61-.47,16.43-1.23c3.01-.68,5.17-2.79,5.65-5.52.39-2.39.92-6.12,1.02-10.84,0-3.82-.35-7.48-1.03-10.87Zm-21.97,23.57c-6.39,0-12.09-.43-15.21-1.15-1-.27-1.71-.87-1.82-1.55,0-.04-.02-.08-.03-.12-.68-2.37-1.04-5.75-1.04-9.78,0-5.04.48-8.32.78-9.86.12-.76.96-1.17,1.78-1.47,0,0,.03-.01.05-.02,3.38-.7,9.36-1.15,15.3-1.15,7,0,12.72.57,15.41,1.05.98.26,1.71.86,1.81,1.53.65,3.42.97,6.72.97,9.79-.09,4.04-.54,7.37-.98,10.1-.12.8-1,1.21-1.77,1.48-3.67.7-9.65,1.16-15.25,1.16Z"/>
        </g>
        <path class="cls-1" d="m22.9,1.5c6.6,0,12.7.5,16.2,1,2.2.5,4.1,2.1,4.5,4.3.5,2.5,1,6.1,1,10.6-.1,4.5-.6,8.1-1,10.6-.4,2.3-2.3,3.8-4.5,4.3-3.5.7-9.5,1.2-16.1,1.2s-12.6-.5-16.1-1.2c-2.2-.5-4.1-2.1-4.5-4.3-.5-2.5-.9-6-.9-10.5s.4-8.1.8-10.5c.4-2.3,2.3-3.8,4.5-4.3,3.3-.7,9.5-1.2,16.1-1.2m.2,30.1c6,0,12-.5,15.6-1.2.6-.2,2.6-.8,2.9-2.7.4-2.5.9-6,1-10.3,0-3.5-.4-6.9-1-10.1-.2-1.3-1.4-2.3-2.9-2.7-2.8-.5-8.6-1.1-15.8-1.1-6.3,0-12.4.5-15.7,1.2-.5.2-2.6.8-2.9,2.7-.4,2.1-.8,5.5-.8,10.1,0,3.7.3,7.4,1.1,10.2.2,1.3,1.4,2.3,2.9,2.7,3.5.8,9.6,1.2,15.6,1.2m-4.97-21.65c.1,0,.21.03.31.08l12.12,6.93c.42.24.42.84,0,1.08l-12.12,6.93c-.1.06-.21.08-.31.08-.33,0-.62-.26-.62-.62v-13.86c0-.36.3-.62.62-.62m2,11.7c.1,0,.21-.03.31-.08l6.13-3.52c.42-.24.42-.84,0-1.08l-6.13-3.52c-.1-.06-.21-.08-.31-.08-.33,0-.62.26-.62.62v7.05c0,.36.3.62.62.62M22.9.5c-6.4,0-12.81.48-16.31,1.22C3.77,2.36,1.75,4.32,1.32,6.83c-.37,2.24-.82,5.91-.82,10.67,0,5.05.5,8.6.92,10.7.45,2.46,2.51,4.46,5.26,5.08,3.79.76,10.04,1.22,16.32,1.22s12.53-.47,16.29-1.22c2.84-.64,4.85-2.6,5.29-5.11.39-2.42.91-6.14,1.01-10.75,0-3.8-.34-7.44-1.02-10.82-.44-2.46-2.51-4.46-5.26-5.08h-.08c-3.42-.5-9.5-1.02-16.34-1.02h.01ZM7.48,5.66c3.39-.71,9.43-1.16,15.42-1.16,7.02,0,12.77.58,15.58,1.07,1.17.33,2,1.06,2.13,1.88.66,3.5.99,6.84.99,9.95-.09,4.13-.58,7.59-.99,10.14-.17,1.09-1.24,1.59-2.16,1.89h0c-3.69.71-9.7,1.17-15.35,1.17-6.41,0-12.16-.44-15.38-1.17-1.15-.31-2.01-1.05-2.13-1.88v-.06l-.03-.06c-.7-2.43-1.06-5.86-1.06-9.92,0-5.04.49-8.37.78-9.91.17-1.06,1.21-1.56,2.1-1.89.04-.01.07-.03.1-.04h0Zm10.64,3.29c-.89,0-1.62.73-1.62,1.62v13.86c0,.89.73,1.62,1.62,1.62.28,0,.56-.07.8-.21l12.12-6.93c.5-.29.82-.83.82-1.41s-.31-1.12-.82-1.41l-12.12-6.93c-.25-.14-.52-.21-.8-.21h0Zm2.38,11.42v-5.74l4.99,2.87-4.99,2.87h0Z"/>
      </g>
    </g>
  </g>
</svg>