<?xml version="1.0" encoding="UTF-8"?>
<svg id="Layer_2" data-name="Layer 2" xmlns="http://www.w3.org/2000/svg" viewBox="0 0 45.1 34">
  <defs>
    <style>
      .cls-1 {
        fill: #fff;
      }
    </style>
  </defs>
  <g id="Layer_1-2" data-name="Layer 1">
    <g>
      <path class="cls-1" d="m22.5,33.5c-6.26,0-12.46-.46-16.2-1.21-2.56-.58-4.48-2.43-4.89-4.7-.41-2.06-.91-5.58-.91-10.59,0-4.73.44-8.36.81-10.58.4-2.31,2.27-4.11,4.88-4.71C9.67.97,16.03.5,22.4.5c6.81,0,12.87.52,16.27,1,2.59.59,4.51,2.43,4.92,4.71.67,3.34,1.01,6.94,1.01,10.69-.1,4.58-.62,8.29-1.01,10.68-.4,2.31-2.27,4.12-4.88,4.71-3.75.75-9.95,1.21-16.21,1.21Zm-.1-30c-6.07,0-12.19.47-15.6,1.19l-.09.04c-.65.24-2.19.8-2.42,2.25-.3,1.57-.79,4.94-.79,10.02,0,4.11.37,7.59,1.08,10.06.17,1.09,1.16,1.99,2.55,2.36,3.23.74,9.02,1.18,15.47,1.18,5.71,0,11.8-.47,15.51-1.19.62-.21,2.26-.76,2.5-2.29.41-2.57.9-6.05.99-10.23,0-3.13-.33-6.5-.99-10-.16-1.04-1.15-1.94-2.54-2.31-2.77-.49-8.58-1.08-15.67-1.08Zm-4.78,21.55c-.62,0-1.12-.5-1.12-1.12v-13.86c0-.62.5-1.12,1.12-1.12.19,0,.39.05.56.15l12.12,6.93c.35.2.57.57.57.97s-.21.77-.57.97l-12.12,6.93c-.17.1-.36.15-.56.15h0Zm2-11.7s-.12.04-.12.12v7.05c0,.08.07.12.12.12l6.19-3.54c.05-.03.06-.07.06-.11s-.01-.08-.06-.11l-6.13-3.52-.06-.02Z"/>
      <path d="m22.4,1c6.6,0,12.7.5,16.2,1,2.2.5,4.1,2.1,4.5,4.3.5,2.5,1,6.1,1,10.6-.1,4.5-.6,8.1-1,10.6-.4,2.3-2.3,3.8-4.5,4.3-3.5.7-9.5,1.2-16.1,1.2s-12.6-.5-16.1-1.2c-2.2-.5-4.1-2.1-4.5-4.3-.5-2.5-.9-6-.9-10.5s.4-8.1.8-10.5c.4-2.3,2.3-3.8,4.5-4.3,3.3-.7,9.5-1.2,16.1-1.2m.2,30.1c6,0,12-.5,15.6-1.2.6-.2,2.6-.8,2.9-2.7.4-2.5.9-6,1-10.3,0-3.5-.4-6.9-1-10.1-.2-1.3-1.4-2.3-2.9-2.7-2.8-.5-8.6-1.1-15.8-1.1-6.3,0-12.4.5-15.7,1.2-.5.2-2.6.8-2.9,2.7-.4,2.1-.8,5.5-.8,10.1,0,3.7.3,7.4,1.1,10.2.2,1.3,1.4,2.3,2.9,2.7,3.5.8,9.6,1.2,15.6,1.2m-4.97-21.65c.1,0,.21.03.31.08l12.12,6.93c.42.24.42.84,0,1.08l-12.12,6.93c-.1.06-.21.08-.31.08-.33,0-.62-.26-.62-.62v-13.86c0-.36.3-.62.62-.62m2,11.7c.1,0,.21-.03.31-.08l6.13-3.52c.42-.24.42-.84,0-1.08l-6.13-3.52c-.1-.06-.21-.08-.31-.08-.33,0-.62.26-.62.62v7.05c0,.36.3.62.62.62M22.4,0C16,0,9.59.48,6.09,1.22,3.27,1.86,1.25,3.82.82,6.33c-.37,2.24-.82,5.91-.82,10.67,0,5.05.5,8.6.92,10.7.45,2.46,2.51,4.46,5.26,5.08,3.79.76,10.04,1.22,16.32,1.22s12.53-.47,16.29-1.22c2.84-.64,4.85-2.6,5.29-5.11.39-2.42.91-6.14,1.01-10.75,0-3.8-.34-7.44-1.02-10.82-.44-2.46-2.51-4.46-5.26-5.08h-.04s-.04-.01-.04-.01c-3.42-.49-9.5-1.01-16.34-1.01h0ZM6.98,5.16c3.39-.71,9.43-1.16,15.42-1.16,7.02,0,12.77.58,15.58,1.07,1.17.33,2,1.06,2.13,1.88.66,3.5.99,6.84.99,9.95-.09,4.13-.58,7.59-.99,10.14-.17,1.09-1.24,1.59-2.16,1.89h0c-3.69.71-9.7,1.17-15.35,1.17-6.41,0-12.16-.44-15.38-1.17-1.15-.31-2.01-1.05-2.13-1.88v-.06s-.03-.06-.03-.06c-.7-2.43-1.06-5.86-1.06-9.92,0-5.04.49-8.37.78-9.91.17-1.06,1.21-1.56,2.1-1.89.04-.01.07-.03.1-.04h0Zm10.64,3.29c-.89,0-1.62.73-1.62,1.62v13.86c0,.89.73,1.62,1.62,1.62.28,0,.56-.07.8-.21l12.12-6.93c.5-.29.82-.83.82-1.41s-.31-1.12-.82-1.41l-12.12-6.93c-.25-.14-.52-.21-.8-.21h0Zm2.38,11.42v-5.74l4.99,2.87-4.99,2.87h0Z"/>
    </g>
  </g>
</svg>